<svg width="26" height="21" viewBox="0 0 26 21" fill="none" xmlns="http://www.w3.org/2000/svg">
<path d="M24.9579 4.86397H5.6316L5.23757 3.07333C4.99469 1.97104 3.93039 1.10878 2.57211 0.913873L1.1435 0.709591C0.845675 0.666548 0.561534 0.827787 0.508511 1.06938C0.455702 1.31116 0.654109 1.54182 0.951933 1.58486L2.38589 1.78915C3.2907 1.91932 3.99902 2.49433 4.15937 3.22884L6.09683 12.1018C6.3256 13.1635 7.46195 13.938 8.78965 13.9369H20.2836C21.4911 13.9399 22.5575 13.2982 22.9054 12.3596L25.4778 5.43707C25.5255 5.30204 25.4954 5.15659 25.3957 5.04169C25.2916 4.93044 25.1298 4.86483 24.9579 4.86397ZM21.8599 12.0973C21.6534 12.6611 21.0135 13.0467 20.2891 13.0438H8.79521C7.99794 13.0455 7.31549 12.5798 7.18058 11.9418L5.82872 5.74809H24.2243L21.8599 12.0973Z" fill="#365611" fill-opacity="0.7"/>
<path d="M19.9445 15.2604C18.4103 15.2604 17.1667 16.4454 17.1667 17.9073C17.1667 19.369 18.4103 20.5541 19.9445 20.5541C21.4786 20.5541 22.7222 19.369 22.7222 17.9073C22.7206 16.4461 21.478 15.2619 19.9445 15.2604ZM19.9445 19.581C18.9744 19.581 18.1879 18.8316 18.1879 17.9073C18.1879 16.9829 18.9744 16.2335 19.9445 16.2335C20.9145 16.2335 21.701 16.9829 21.701 17.9073C21.701 18.8316 20.9145 19.581 19.9445 19.581Z" fill="#365611" fill-opacity="0.7"/>
<path d="M9.52788 15.2604C7.99363 15.2604 6.75 16.4454 6.75 17.9073C6.75 19.369 7.99363 20.5541 9.52788 20.5541C11.0619 20.5541 12.3056 19.369 12.3056 17.9073C12.304 16.4461 11.0613 15.2619 9.52788 15.2604ZM9.52788 19.581C8.55771 19.581 7.77123 18.8316 7.77123 17.9073C7.77123 16.9829 8.55771 16.2335 9.52788 16.2335C10.4979 16.2335 11.2843 16.9829 11.2843 17.9073C11.2843 18.8316 10.4979 19.581 9.52788 19.581Z" fill="#365611" fill-opacity="0.7"/>
<path d="M9.82812 15.1089C11.3063 15.2536 12.4709 16.4441 12.4727 17.9067V17.9077L12.4688 18.0532C12.3892 19.5457 11.0958 20.721 9.52832 20.7212C7.90985 20.7212 6.58324 19.4688 6.58301 17.9077C6.58301 16.3462 7.9097 15.0933 9.52832 15.0933L9.82812 15.1089ZM20.2441 15.1089C21.7226 15.2533 22.8869 16.4439 22.8887 17.9067V17.9077L22.8848 18.0532C22.8052 19.5459 21.512 20.7212 19.9443 20.7212C18.326 20.7211 17.0002 19.4687 17 17.9077C17 16.3463 18.3258 15.0934 19.9443 15.0933L20.2441 15.1089ZM9.52832 16.3999C8.64252 16.3999 7.9375 17.0828 7.9375 17.9077C7.93773 18.7322 8.64266 19.4146 9.52832 19.4146C10.4136 19.4143 11.117 18.7321 11.1172 17.9077C11.1172 17.0829 10.4137 16.4001 9.52832 16.3999ZM19.9443 16.3999C19.0586 16.4 18.3545 17.0829 18.3545 17.9077C18.3547 18.7322 19.0588 19.4144 19.9443 19.4146C20.8298 19.4146 21.5339 18.7322 21.5342 17.9077C21.5342 17.0828 20.8299 16.3999 19.9443 16.3999ZM1.16699 0.544434L2.5957 0.748535L2.85645 0.794434C4.1424 1.06408 5.15519 1.92476 5.40039 3.0376L5.76562 4.69775H24.959L25.1152 4.7124C25.2438 4.73739 25.3645 4.79298 25.4619 4.87549L25.5176 4.92822L25.5215 4.93213L25.5684 4.99365C25.6674 5.1411 25.6952 5.3215 25.6348 5.49268L25.6338 5.49561L23.0615 12.4175C22.7072 13.3736 21.6817 14.0215 20.5176 14.0962L20.2832 14.104H8.79004C7.49433 14.105 6.33763 13.3946 5.99219 12.3501L5.93359 12.1372L3.99609 3.26416C3.86299 2.65519 3.29455 2.14463 2.51953 1.98193L2.3623 1.95459L0.928711 1.74951H0.927734C0.569568 1.69756 0.265389 1.40139 0.345703 1.03369L0.364258 0.969238C0.472065 0.658892 0.833481 0.49639 1.16699 0.544434ZM7.34375 11.9067V11.9077L7.37012 12.0073C7.53211 12.4991 8.0986 12.879 8.79492 12.8774H20.29L20.415 12.8735C21.0318 12.8346 21.5376 12.4913 21.7031 12.0396H21.7041L23.9844 5.91455H6.03516L7.34375 11.9067Z" stroke="#365611" stroke-opacity="0.7" stroke-width="0.333333"/>
</svg>
